<?xml version="1.0" encoding="UTF-8" standalone="no"?>
<svg width="77px" height="38px" viewBox="0 0 77 38" version="1.1" xmlns="http://www.w3.org/2000/svg" xmlns:xlink="http://www.w3.org/1999/xlink" xmlns:sketch="http://www.bohemiancoding.com/sketch/ns">
    <!-- Generator: Sketch 3.4.2 (15857) - http://www.bohemiancoding.com/sketch -->
    <title>Line</title>
    <desc>Created with Sketch.</desc>
    <defs></defs>
    <g id="Mobile-Home" stroke="none" stroke-width="1" fill="none" fill-rule="evenodd" sketch:type="MSPage">
        <g id="Scrap-Board" sketch:type="MSArtboardGroup" transform="translate(-126.000000, -47.000000)" stroke="#290430" stroke-linecap="square">
            <path d="M133.395532,65.5118532 L158.773625,48.9184848 L159.192109,48.6448601 L158.64486,47.8078905 L158.226375,48.0815152 L132.507976,64.8973916 L132.373509,64.8042989 L132.144551,65.1350156 L131.807891,65.3551399 L131.897392,65.4920239 L131.804299,65.6264911 L132.135016,65.8554488 L132.35514,66.1921095 L132.492024,66.1026084 L158.215395,83.9110961 L158.626491,84.1957011 L159.195701,83.3735089 L158.784605,83.0889039 L133.395532,65.5118532 Z M128.395532,65.5118532 L153.773625,48.9184848 L154.192109,48.6448601 L153.64486,47.8078905 L153.226375,48.0815152 L127.507976,64.8973916 L127.373509,64.8042989 L127.144551,65.1350156 L126.807891,65.3551399 L126.897392,65.4920239 L126.804299,65.6264911 L127.135016,65.8554488 L127.35514,66.1921095 L127.492024,66.1026084 L153.215395,83.9110961 L153.626491,84.1957011 L154.195701,83.3735089 L153.784605,83.0889039 L128.395532,65.5118532 Z M141,64.5 L201.5,64.5 L202,64.5 L202,63.5 L201.5,63.5 L141,63.5 L140.5,63.5 L140.5,64.5 L141,64.5 Z M141,67.5 L201.5,67.5 L202,67.5 L202,66.5 L201.5,66.5 L141,66.5 L140.5,66.5 L140.5,67.5 L141,67.5 Z" id="Line" sketch:type="MSShapeGroup"></path>
        </g>
    </g>
</svg>