<?xml version="1.0" encoding="UTF-8" standalone="no"?>
<svg width="68px" height="98px" viewBox="0 0 68 98" version="1.1" xmlns="http://www.w3.org/2000/svg" xmlns:xlink="http://www.w3.org/1999/xlink" xmlns:sketch="http://www.bohemiancoding.com/sketch/ns">
    <!-- Generator: Sketch 3.4.2 (15857) - http://www.bohemiancoding.com/sketch -->
    <title>Art Icon</title>
    <desc>Created with Sketch.</desc>
    <defs>
        <path d="M9,10.9952718 C8.03342398,10.2642502 4.35614745,6.23895391 1.30110905,6.23895391 C-2.24923999,6.23895391 -1.09381324,11.0598592 1.30110911,11.0598592 C-1.09381324,11.0598592 -2.24923999,15.8807644 1.30110905,15.8807644 C4.35614745,15.8807644 8.03342398,11.8554681 9,11.1244466 C9.96657602,11.8554681 13.6438526,15.8807644 16.6988909,15.8807644 C20.24924,15.8807644 19.0938132,11.0598592 16.6988909,11.0598592 C19.0938132,11.0598592 20.24924,6.23895391 16.6988909,6.23895391 C13.6438526,6.23895391 9.96657602,10.2642502 9,10.9952718 Z M9,11.9285135 C9.61543471,11.9285135 4.17909476,16.3192225 4.17909476,19.8695716 C4.17909476,23.4199206 9,22.2644938 9,19.8695715 C9,22.2644938 13.8209052,23.4199206 13.8209052,19.8695716 C13.8209052,16.3192225 8.38456529,11.9285135 9,11.9285135 Z M9,10.1912049 C8.38456529,10.1912049 13.8209052,5.8004958 13.8209052,2.25014675 C13.8209052,-1.30020229 9,-0.144775536 9,2.25014681 C9,-0.14477554 4.17909476,-1.30020229 4.17909476,2.25014675 C4.17909476,5.8004958 9.61543471,10.1912049 9,10.1912049 Z" id="path-1"></path>
    </defs>
    <g id="Desktop-Home" stroke="none" stroke-width="1" fill="none" fill-rule="evenodd" sketch:type="MSPage">
        <g id="Home2" sketch:type="MSArtboardGroup" transform="translate(-1039.000000, -171.000000)">
            <g id="Icons" sketch:type="MSLayerGroup" transform="translate(211.000000, 171.000000)">
                <g id="Art-Icon" transform="translate(829.000000, 4.000000)">
                    <path d="M33.6428571,13.5176056 L34.4285714,15.9753521 L26.5714286,15.9753521 L27.3571429,13.5176056 L26,13.5176056 L30.5,0 L35,13.5176056 L33.6428571,13.5176056 Z M12.9255994,56.528169 L2.06924851,90.4872793 L1.70359613,91.6310549 L3.56509912,92.5297357 L3.93075149,91.3859601 L14.9307515,56.9775094 L15.0744006,56.528169 L45.9255994,56.528169 L46.0692485,56.9775094 L57.0692485,91.3859601 L57.4349009,92.5297357 L59.2964039,91.6310549 L58.9307515,90.4872793 L48.0744006,56.528169 L59.5,56.528169 L60.5,56.528169 L60.5,54.0704225 L59.5,54.0704225 L1,54.0704225 L0,54.0704225 L0,56.528169 L1,56.528169 L12.9255994,56.528169 Z M3,15.9753521 L57.5,15.9753521 L57.5,52.8415493 L3,52.8415493 L3,15.9753521 Z M33.6428571,13.5176056 L30.5,3.68661972 L27.3571429,13.5176056 L33.6428571,13.5176056 Z" id="Easel" stroke="#290430" stroke-width="2" fill="#FFFFFF" sketch:type="MSShapeGroup"></path>
                    <g id="Logo-Small" transform="translate(21.000000, 24.577465)">
                        <g>
                            <use stroke="none" fill="#290430" fill-rule="evenodd" sketch:type="MSShapeGroup" xlink:href="#path-1"></use>
                            <use stroke="#200326" stroke-width="1" fill="none" xlink:href="#path-1"></use>
                        </g>
                    </g>
                    <path d="M50.8574729,38.6399434 L52.7894906,38.6399434 L52.7894906,69.5843355 L50.8574729,69.5843355 L50.8574729,38.6399434 Z M51.7954994,33.288147 L52.7615083,38.1355566 L50.8294906,38.1355566 L51.7954994,33.288147 Z M50.8396522,70.1278525 L52.7513467,70.1278525 L52.7513467,71.9267277 L50.8396522,71.9267277 L50.8396522,70.1278525 Z" id="Pencil" stroke="#FFFFFF" stroke-width="0.4" fill="#290430" sketch:type="MSShapeGroup" transform="translate(51.809491, 52.607437) scale(-1, 1) rotate(45.000000) translate(-51.809491, -52.607437) "></path>
                </g>
            </g>
        </g>
    </g>
</svg>