<?xml version="1.0" encoding="UTF-8" standalone="no"?>
<svg width="69px" height="47px" viewBox="0 0 69 47" version="1.1" xmlns="http://www.w3.org/2000/svg" xmlns:xlink="http://www.w3.org/1999/xlink" xmlns:sketch="http://www.bohemiancoding.com/sketch/ns">
    <!-- Generator: Sketch 3.4.2 (15857) - http://www.bohemiancoding.com/sketch -->
    <title>BM</title>
    <desc>Created with Sketch.</desc>
    <defs></defs>
    <g id="Mobile-Home" stroke="none" stroke-width="1" fill="none" fill-rule="evenodd" sketch:type="MSPage">
        <g id="Scrap-Board" sketch:type="MSArtboardGroup" transform="translate(-240.000000, -594.000000)" fill="#290430">
            <g id="BM" sketch:type="MSLayerGroup" transform="translate(238.000000, 594.000000)">
                <path d="M24.375,23 C28.6875216,23.8541709 31.9166559,25.3229062 34.0625,27.40625 C36.2083441,29.4895938 37.28125,32.1770669 37.28125,35.46875 C37.28125,39.3021025 36.0104294,42.182282 33.46875,44.109375 C30.9270706,46.036468 27.1041922,47 22,47 L0.34375,47 L0.34375,44.09375 L0.9375,44.0625 C3.04167719,43.9166659 4.30208125,43.5572945 4.71875,42.984375 C5.13541875,42.4114555 5.34375,40.7291806 5.34375,37.9375 L5.34375,9.78125 C5.34375,6.98956937 5.14062703,5.31250281 4.734375,4.75 C4.32812297,4.18749719 3.06251062,3.8229175 0.9375,3.65625 L0.34375,3.625 L0.34375,0.75 L21.90625,0.75 C26.3854391,0.75 29.7447805,1.60415813 31.984375,3.3125 C34.2239695,5.02084187 35.34375,7.59373281 35.34375,11.03125 C35.34375,13.69793 34.4323008,16.03124 32.609375,18.03125 C30.7864492,20.03126 28.041685,21.6874934 24.375,23 L24.375,23 Z M14.59375,24.84375 L14.59375,37.96875 C14.59375,40.3229284 14.8749972,41.8385383 15.4375,42.515625 C16.0000028,43.1927117 17.2499903,43.53125 19.1875,43.53125 C21.6666791,43.53125 23.6562425,42.7395912 25.15625,41.15625 C26.6562575,39.5729088 27.40625,37.4791797 27.40625,34.875 C27.40625,31.874985 26.4010517,29.4531342 24.390625,27.609375 C22.3801983,25.7656158 19.7604328,24.84375 16.53125,24.84375 L14.59375,24.84375 Z M14.59375,21.75 L16.5,21.75 C19.6041822,21.75 21.9270756,20.9739661 23.46875,19.421875 C25.0104244,17.8697839 25.78125,15.5416822 25.78125,12.4375 C25.78125,9.56248563 25.0104244,7.40625719 23.46875,5.96875 C21.9270756,4.53124281 19.6145988,3.8125 16.53125,3.8125 L14.59375,3.8125 L14.59375,21.75 Z" id="B" sketch:type="MSShapeGroup" transform="translate(20.109375, 23.875000) scale(-1, 1) translate(-20.109375, -23.875000) "></path>
                <path d="M27.34375,0.75 L39.5204819,0.75 L49.6471757,30.6875 L59.9714636,0.75 L70.9626314,0.75 L70.9626314,3.625 L70.4933455,3.65625 C68.7973217,3.8229175 67.7887789,4.18749719 67.467687,4.75 C67.1465951,5.31250281 66.9860516,6.98956937 66.9860516,9.78125 L66.9860516,37.9375 C66.9860516,40.7291806 67.1507116,42.4114555 67.4800366,42.984375 C67.8093617,43.5572945 68.8055549,43.9166659 70.4686463,44.0625 L70.9379321,44.09375 L70.9379321,47 L56.6123652,47 L56.6123652,44.09375 L57.081651,44.0625 C58.4648161,43.9583328 59.2922328,43.6145863 59.563926,43.03125 C59.8356191,42.4479137 59.9714636,40.7500141 59.9714636,37.9375 L59.9714636,10.5 L48.5604086,41.84375 L46.1151825,41.84375 L34.9758193,8.5625 L34.9758193,37.9375 C34.9758193,40.7083472 35.1157803,42.3958303 35.3957066,43 C35.6756329,43.6041697 36.4989331,43.9583328 37.8656319,44.0625 L38.3102185,44.09375 L38.3102185,47 L27.34375,47 L27.34375,44.09375 L27.8130358,44.0625 C29.4761272,43.9166659 30.4723204,43.5572945 30.8016455,42.984375 C31.1309705,42.4114555 31.2956305,40.7291806 31.2956305,37.9375 L31.2956305,9.78125 C31.2956305,6.98956937 31.135087,5.31250281 30.8139951,4.75 C30.4929032,4.18749719 29.4925934,3.8229175 27.8130358,3.65625 L27.34375,3.625 L27.34375,0.75 Z" id="M" sketch:type="MSShapeGroup"></path>
            </g>
        </g>
    </g>
</svg>