<?xml version="1.0" encoding="utf-8"?>
<!-- Generator: Adobe Illustrator 16.0.0, SVG Export Plug-In . SVG Version: 6.00 Build 0)  -->
<!DOCTYPE svg PUBLIC "-//W3C//DTD SVG 1.1//EN" "http://www.w3.org/Graphics/SVG/1.1/DTD/svg11.dtd">
<svg version="1.1" xmlns="http://www.w3.org/2000/svg" xmlns:xlink="http://www.w3.org/1999/xlink" x="0px" y="0px"
	 width="147.667px" height="147px" viewBox="-24.333 -39.5 147.667 147" enable-background="new -24.333 -39.5 147.667 147"
	 xml:space="preserve">
<g id="Layer_2" display="none">
	<circle display="inline" fill="#003338" cx="49.5" cy="34.5" r="71.5"/>
</g>
<g id="Layer_1" xmlns:sketch="http://www.bohemiancoding.com/sketch/ns">
	<title>Book icon Copy</title>
	<desc>Created with Sketch.</desc>
	<path fill="#013338" stroke="#003338" d="M10.08,5.043L-7.18,51.993c0,0,2.178,0.674,7.848,0.674
		c4.667,0,21.461-10.155,31.174-9.226c9.326,0.893,16.088,11.316,16.088,11.316l0.404-51.11c0,0-5.333-3.814-9.5-4.481
		c-2.97-0.475-12.464,3.034-15.732,4.267S10.08,5.043,10.08,5.043z"/>
	<path fill="#013338" stroke="#003338" d="M86.805,5.043l17.26,46.95c0,0-2.178,0.674-7.848,0.674
		c-4.666,0-21.461-10.155-31.174-9.226c-9.326,0.893-16.376,11.316-16.376,11.316L48.55,3.648c0,0,5.333-3.814,9.5-4.481
		c2.969-0.475,12.463,3.034,15.73,4.267C77.051,4.667,86.805,5.043,86.805,5.043z"/>
</g>
<g id="Layer_3">
	<path fill="#ABC6CA" stroke="#003338" d="M12.043,8.798l-13.333,38.5c0,0,2.926,1.571,6.667,0s17.333-7.666,25.333-7.833
		s14.833,6,14.833,6V7.631c0,0-3.167-4.167-7.333-3.833s-12,3.333-14.667,4.5S12.043,8.798,12.043,8.798z"/>
	<path fill="#ABC6CA" stroke="#003338" d="M84.625,8.798l13.334,38.5c0,0-2.926,1.571-6.666,0
		c-3.742-1.571-17.334-7.666-25.334-7.833s-14.832,6-14.832,6V7.631c0,0,3.166-4.167,7.332-3.833c4.168,0.333,12,3.333,14.668,4.5
		C75.793,9.464,84.625,8.798,84.625,8.798z"/>
	<path fill="#003338" stroke="#003338" d="M90.832,10.501c0,0,22.166,45.5,21.5,47s-57.5,1.167-57.5,1.167v3.166h-6.498v-3.666
		c0,0,7.832-8.333,15.665-9s24.571,4.698,33.96,6.833c4.36,0.991,7.771,0.384,8.95-0.938c1.359-1.524,0.079-3.998-0.743-6.062
		C104.631,45.147,88.832,10.834,90.832,10.501z"/>
	<path fill="#003338" stroke="#003338" d="M6.015,10.501c0,0-22.166,45.5-21.5,47s57.5,1.167,57.5,1.167v3.166h6.498v-3.666
		c0,0-7.832-8.333-15.665-9s-24.571,4.698-33.96,6.833c-4.36,0.991-7.771,0.384-8.95-0.938c-1.359-1.524-0.079-3.998,0.743-6.062
		C-7.784,45.147,8.015,10.834,6.015,10.501z"/>
</g>
</svg>
