<?xml version="1.0" encoding="UTF-8" standalone="no"?>
<svg width="101px" height="62px" viewBox="0 0 101 62" version="1.1" xmlns="http://www.w3.org/2000/svg" xmlns:xlink="http://www.w3.org/1999/xlink" xmlns:sketch="http://www.bohemiancoding.com/sketch/ns">
    <!-- Generator: Sketch 3.4.2 (15857) - http://www.bohemiancoding.com/sketch -->
    <title>Book icon Copy</title>
    <desc>Created with Sketch.</desc>
    <defs></defs>
    <g id="Desktop-Home" stroke="none" stroke-width="1" fill="none" fill-rule="evenodd" sketch:type="MSPage">
        <g id="Home2" sketch:type="MSArtboardGroup" transform="translate(-611.000000, -207.000000)" stroke="#290430" fill="#FFFFFF">
            <g id="Icons" sketch:type="MSLayerGroup" transform="translate(211.000000, 175.000000)">
                <path d="M454.07416,88.7157866 C461.211411,90.4049569 484.430708,91.2084957 493.078369,89.7681277 C494.425505,89.7467798 495.411615,89.6028838 495.917799,89.2936529 L495.952811,89.5435115 L496.659366,89.375029 L496.594788,88.9141799 L490.489558,45.3450484 L490.424981,44.8841993 L489.718426,45.0526817 L489.783003,45.5135308 L495.865441,88.9200027 L480.211319,88.5852365 C467.54752,86.9177437 452.020468,84.4320995 451.996658,87.7376903 C451.566644,87.6438186 451.106409,87.5929653 450.627963,87.5929653 C450.150956,87.5929653 449.69205,87.6435133 449.263148,87.7368448 C449.236697,84.4325234 433.711212,86.9178858 421.048493,88.5852365 L405.394372,88.9200027 L411.476809,45.5135308 L411.541387,45.0526817 L410.834832,44.8841993 L410.770254,45.3450484 L404.665024,88.9141799 L404.600446,89.375029 L405.307001,89.5435115 L405.342013,89.2936529 C405.848198,89.6028838 406.834307,89.7467798 408.181443,89.7681277 C416.826948,91.2081365 440.036824,90.4053575 447.180311,88.7170499 C446.639101,89.1868915 446.318389,89.7709555 446.318389,90.403877 C446.318389,91.9563007 448.247851,93.2147887 450.627963,93.2147887 C453.008076,93.2147887 454.937538,91.9563007 454.937538,90.403877 C454.937538,89.7703881 454.61625,89.1858443 454.07416,88.7157866 Z M495.872453,88.9700468 L495.888234,89.0826624 L495.914824,89.2724228 L495.231828,89.2578168 C495.486164,89.167289 495.700793,89.0714138 495.872453,88.9700468 Z M405.387359,88.9700468 L405.371579,89.0826624 L405.344988,89.2724228 L406.027985,89.2578168 C405.773648,89.167289 405.55902,89.0714138 405.387359,88.9700468 Z M450.627963,36.0595839 C450.627963,36.0595839 445.494047,31.9665436 438.417503,33.2486722 C431.340958,34.5308007 430.191786,38.7238581 424.770517,40.7444367 C419.349248,42.7650153 413.278319,41.6814073 413.278319,41.6814073 L406.813957,87.5929653 C406.813957,87.5929653 417.964866,89.9956682 442.008815,81.0341711 C447.036651,79.1602299 450.627963,86.6559947 450.627963,86.6559947 L450.627963,36.0595839 Z M450.627963,36.308256 C450.627963,36.308256 455.76188,32.2152158 462.838424,33.4973443 C469.914969,34.7794729 471.06414,38.9725303 476.48541,40.9931089 C481.906679,43.0136875 487.977608,41.9300795 487.977608,41.9300795 L494.44197,87.8416375 C494.44197,87.8416375 483.291061,90.2443403 459.247112,81.2828432 C454.219275,79.4089021 450.627963,86.9046669 450.627963,86.9046669 L450.627963,36.308256 Z M408.617745,46.267132 L401.07599,91.7102047 L401,92.1680825 L401.701999,92.3663388 L401.777989,91.9084611 L409.319744,46.4653883 L409.395734,46.0075106 L408.693734,45.8092542 L408.617745,46.267132 Z M401.786121,92.2778182 C401.786121,92.2778182 443.445339,94.1517593 446.318389,92.2778182 L401.786121,92.2778182 Z M492.642068,46.267132 L500.183823,91.7102047 L500.259812,92.1680825 L499.557813,92.3663388 L499.481823,91.9084611 L491.940068,46.4653883 L491.864079,46.0075106 L492.566078,45.8092542 L492.642068,46.267132 Z M499.473692,92.2778182 C499.473692,92.2778182 457.814473,94.1517593 454.941423,92.2778182 L499.473692,92.2778182 Z" id="Book-icon-Copy" sketch:type="MSShapeGroup"></path>
            </g>
        </g>
    </g>
</svg>