<?xml version="1.0" encoding="UTF-8" standalone="no"?>
<svg width="70px" height="95px" viewBox="0 0 70 95" version="1.1" xmlns="http://www.w3.org/2000/svg" xmlns:xlink="http://www.w3.org/1999/xlink" xmlns:sketch="http://www.bohemiancoding.com/sketch/ns">
    <!-- Generator: Sketch 3.4.2 (15857) - http://www.bohemiancoding.com/sketch -->
    <title>Computer Icon</title>
    <desc>Created with Sketch.</desc>
    <defs></defs>
    <g id="Desktop-Home" stroke="none" stroke-width="1" fill="none" fill-rule="evenodd" >
        <g id="Home2" transform="translate(-217.000000, -175.000000)" stroke="#290430" fill="#FFFFFF">
            <g id="Icons" transform="translate(211.000000, 175.000000)">
                <path d="M46.1864407,61.7876174 L46.1864407,56.4034376 L36.9661017,56.4034376 L36.9661017,61.7876174 C34.2101361,62.6087187 32.3559322,64.1434188 32.3559322,65.9011697 C32.3559322,68.523896 36.4840186,70.6500358 41.5762712,70.6500358 C46.6685238,70.6500358 50.7966102,68.523896 50.7966102,65.9011697 C50.7966102,64.1434188 48.9424063,62.6087187 46.1864407,61.7876174 Z M7,1 L75,1 L75,56.4034376 L7,56.4034376 L7,1 Z M12.7627119,8.9147768 L69.2372881,8.9147768 L69.2372881,48.4886608 L12.7627119,48.4886608 L12.7627119,8.9147768 Z M10.4576271,73.8159465 L71.5423729,73.8159465 L73.8474576,94.3943662 L8.15254237,94.3943662 L10.4576271,73.8159465 Z" id="Computer-Icon"></path>
            </g>
        </g>
    </g>
</svg>
