<?xml version="1.0" encoding="UTF-8" standalone="no"?>
<svg width="430px" height="166px" viewBox="0 0 430 166" version="1.1" xmlns="http://www.w3.org/2000/svg" xmlns:xlink="http://www.w3.org/1999/xlink" xmlns:sketch="http://www.bohemiancoding.com/sketch/ns">
    <!-- Generator: Sketch 3.4.2 (15857) - http://www.bohemiancoding.com/sketch -->
    <title>GR skyline</title>
    <desc>Created with Sketch.</desc>
    <defs></defs>
    <g id="Desktop-Home" stroke="none" stroke-width="1" fill="none" fill-rule="evenodd" sketch:type="MSPage">
        <g id="Home2" sketch:type="MSArtboardGroup" transform="translate(0.000000, -666.000000)">
            <g id="Footer" sketch:type="MSLayerGroup" transform="translate(-26.000000, 666.000000)">
                <rect id="Rectangle-34" fill="#200326" sketch:type="MSShapeGroup" x="26" y="157" width="430" height="36"></rect>
                <path d="M0,161 L0,132.070312 L5.71786834,132.070312 L5.71786834,113.203125 L14.2946708,113.203125 L15.7241379,122.007812 L31.4482759,122.007812 L31.4482759,128.296875 L40.0250784,128.296875 L40.0250784,118.234375 L48.6018809,116.976562 L48.6018809,113.203125 L57.1786834,110.6875 L57.1786834,106.914062 L75.7617555,106.914062 L77.1912226,113.203125 L81.4796238,113.203125 L81.4796238,104.398438 L88.6269592,104.398438 L88.6269592,110.6875 L92.9153605,110.6875 L94.3448276,98.109375 L104.351097,98.109375 L104.351097,0 L172.965517,36.4765625 L172.965517,96.8515625 L178.683386,96.8515625 L178.683386,105.65625 L184.401254,105.65625 L184.401254,116.976562 L190.119122,116.976562 L190.119122,110.6875 L201.554859,110.6875 L200.125392,49.0546875 L207.272727,49.0546875 L207.272727,44.0234375 L267.310345,44.0234375 L267.310345,49.0546875 L273.028213,49.0546875 L273.028213,104.398438 L280.175549,104.398438 L280.175549,118.234375 L287.322884,118.234375 L288.752351,113.203125 L300.188088,113.203125 L300.188088,88.046875 L315.912226,88.046875 L315.912226,67.921875 L321.630094,67.921875 L321.630094,61.6328125 L327.347962,61.6328125 L327.347962,54.0859375 L361.655172,54.0859375 L361.655172,61.6328125 L367.373041,61.6328125 L367.373041,67.921875 L373.090909,67.921875 L373.090909,96.8515625 L378.808777,96.8515625 L378.808777,133.328125 L383.097179,133.328125 L383.097179,108.171875 L390.244514,108.171875 L390.244514,134.585938 L394.532915,134.585938 L394.532915,115.71875 L421.69279,115.71875 L421.69279,106.914062 L434.557994,106.914062 L434.557994,122.007812 L456,122.007812 L456,161 L0,161 Z" id="GR-skyline" fill="#200326" sketch:type="MSShapeGroup"></path>
                <text id="Becky-Marie" sketch:type="MSTextLayer" font-family="Lucida Bright" font-size="36" font-weight="473" fill="#FFFFFF">
                    <tspan x="123" y="152">Becky Marie</tspan>
                </text>
            </g>
        </g>
    </g>
</svg>