<?xml version="1.0" encoding="utf-8"?>
<!-- Generator: Adobe Illustrator 16.0.0, SVG Export Plug-In . SVG Version: 6.00 Build 0)  -->
<!DOCTYPE svg PUBLIC "-//W3C//DTD SVG 1.1//EN" "http://www.w3.org/Graphics/SVG/1.1/DTD/svg11.dtd">
<svg version="1.1" id="Layer_1" xmlns:sketch="http://www.bohemiancoding.com/sketch/ns"
	 xmlns="http://www.w3.org/2000/svg" xmlns:xlink="http://www.w3.org/1999/xlink" x="0px" y="0px" width="89.5px" height="73.25px"
	 viewBox="-13.5 7.25 89.5 73.25" enable-background="new -13.5 7.25 89.5 73.25" xml:space="preserve">
<title>Computer Icon</title>
<desc>Created with Sketch.</desc>
<path stroke="#000000" stroke-width="0.5" stroke-miterlimit="10" d="M-10.832,60.167V12.334c0,0,0.001-2,1.833-2s77.75,0,80,0
	s2.384,2,2.384,2v48"/>
<rect x="-7.167" y="13.751" fill="#ABC6CA" width="76.58" height="43.333"/>
<path fill="#C0C0C0" stroke="#C0C0C0" stroke-width="0.5" stroke-miterlimit="10" d="M73.464,65.578c0,0-0.136,2.547-2.515,2.547
	c-2.38,0-77.395,0-79.524,0s-2.336-2.547-2.336-2.547v-5.244h84.375V65.578z"/>
<path fill="#C0C0C0" d="M43.839,78.5H18.714c0,0,2.839-1.834,3.125-2.25s1.25-8.125,1.25-8.125h16c0,0,1.1,7.708,1.5,8
	S43.839,78.5,43.839,78.5z"/>
</svg>
