<?xml version="1.0" encoding="utf-8"?>
<!-- Generator: Adobe Illustrator 16.0.0, SVG Export Plug-In . SVG Version: 6.00 Build 0)  -->
<!DOCTYPE svg PUBLIC "-//W3C//DTD SVG 1.1//EN" "http://www.w3.org/Graphics/SVG/1.1/DTD/svg11.dtd">
<svg version="1.1" id="Layer_3" xmlns="http://www.w3.org/2000/svg" xmlns:xlink="http://www.w3.org/1999/xlink" x="0px" y="0px"
	 width="111.667px" height="110px" viewBox="51.5 -55.168 111.667 110" enable-background="new 51.5 -55.168 111.667 110"
	 xml:space="preserve">
<path fill="#ABC6CA" stroke="#013338" stroke-width="3" stroke-miterlimit="10" d="M99.5,52.25c-4.75,1.375,48.75,0,48.75,0
	s1.5-0.5,2.25-3s0.5-3.25,1-5.5s5.75-2.625,7.5-5.5s1.5-5.75,1.5-5.75s0.375-1.875,0.75-2.75s-1.75-1.25-1.75-1.25
	s0.625-10.625-2.25-15.25c-2-2.377-4.5-3-7.75,1.25s-7.625,4.625-9,3.75s-0.375-3.125,0.25-5s4.375-1.25,5.5-1.75
	s-0.613-3.391,0.25-4.25c3.5-2.875,3.625-6.625,3.5-8.5s-3.75-2.75-3.25-4.5s1.75,1,3,0s-0.875-3.625-2.5-5.25
	s-9.044-4.478-7.25-3.75S137.5-17,130.875-19s-3.875,5-4.625,6.25S123-13,121.5-11.25S120.875-2.5,120-2.5s-0.75-7.375-2-7.5
	s-1.689,3.922-3,5s-4.25,2.875-5.625,4.625s0.622,4.694-0.125,6.125s-2.832,3.236-3,5.75s-1.087,5.646-0.5,7.5s4.625,12.25,4.75,15
	C110.287,35.948,104.25,50.875,99.5,52.25z"/>
<path fill="#ABC6CA" stroke="#013338" stroke-width="3" stroke-miterlimit="10" d="M53.5-35.25C54-36.375,63.75-40.125,67-39.5
	c1.125,0.125,1.625-2.125,2.75-3c3.125,0.25,10-6.375,12.5-8.125s6.75-2.75,7.625-0.625s-5.86,4.829-8,7s-4.375,3.875-2.625,4.125
	s4.625-2.875,8.25-1.5s5.875,7,5.875,7s3.875,2.875,7.5,0.625c1.375,0.125,1,1.5,3.5,1.25s5.728-3.645,8.625-3.75s8.625,0,12-2
	c3.25-1-0.625,5.625,2.125,5.75c1.625,0.625,2.125-0.875,4-0.875s0.75,1.125,3,0.875s2-2,3.375-1s0.642,4.898,1.375,6.125
	s1.125,2.5,2.625,2.5s1.5-2.125,3-2.125s3.375,2.125,3.5,4s-1.497,1.875-3.75,1.375s-10.375-2.375-12-2.125s-2.3,2.64-3.104,2.658
	s-4.771-3.658-7.271-3.908s-2.5,1-5,2.125s-3.25-0.375-6.375,0.625c-2.643,0.846-3.708,5.32-6.25,6.75
	c-2,1.125,1.375-5.5,0.375-6.125s-3.5,4.25-4.375,4.375s1.153-0.839-1.048-1.857S93.625-7,91.125-6.75S91.25-11.375,90-12
	s-2.25,1.125-2.75-0.25s2.375-5.839,1.25-7.107s-2.5,1.018-4.25,0s1.25-1.518-0.375-3.268s-10.408-1.81-8.625-1.5
	s-7.625-3.375-10-4.375s-6.355-0.124-8-1.75S53-34.125,53.5-35.25z"/>
<path fill="#FFFFFF" stroke="#FFFFFF" stroke-miterlimit="10" d="M112.593,28.848l3.058,4.078l3.494-4.078c0,0,0.837-1.254,0-2.621
	c-1.893-1.746-3.276,2.33-3.276,2.33s-0.802-4.076-3.275-2.33C111.213,27.084,112.593,28.848,112.593,28.848z"/>
</svg>
