<svg viewBox="93.5 11.75 34 40.75">
<path d="M107.867,15.382c0.153,0,0.308-0.005,0.447,0.042c0.14,0.047,0.237,0.182,0.391,0.205c0.079,0.009,0.153-0.005,0.219-0.033
	c0.042-0.019,0.182-0.07,0.205-0.098c0.089-0.13-0.237-0.163,0.032-0.251c0.131-0.042,0.317-0.088,0.461-0.046
	c0.136,0.042,0.229,0.191,0.34,0.279c0.252,0.186,0.605,0.27,0.819,0.512c0.103,0.112,0.103,0.293,0.303,0.293
	c0.074,0,0.103-0.042,0.163-0.061c0.056-0.023,0.149-0.032,0.21-0.046c0.182-0.028,0.362,0.033,0.54,0.046
	c0.177,0.019,0.335,0.019,0.488,0.103c0.237,0.13,0.461,0.415,0.601,0.647c0.079,0.13,0.061,0.27,0.14,0.396
	c0.084,0.13,0.232,0.205,0.382,0.2c0.279,0,0.643,0,0.871,0.172c0.106,0.079,0.181,0.2,0.288,0.289
	c0.135,0.112,0.214,0.153,0.387,0.172c0.284,0.028,0.582,0.125,0.819,0.293c0.103,0.075,0.2,0.187,0.316,0.228
	c0.061,0.023,0.135,0.028,0.205,0.019c0.088-0.01,0.106-0.061,0.186-0.07c0.079-0.009,0.229,0.061,0.229,0.14
	c0.074-0.051,0.163,0.098,0.205,0.154c0.074,0.103,0.111,0.121,0.237,0.172c0.074,0.028,0.219,0.088,0.261,0.172
	c0.032,0.074,0.005,0.265-0.107,0.242c-0.032,0.135,0.149,0.317,0.182,0.447c0.042,0.153,0.028,0.303,0.172,0.423
	c0.061,0.056,0.141,0.042,0.201,0.084c0.051,0.042,0.083,0.177,0.079,0.237c-0.005,0.084-0.159,0.359,0.051,0.359
	c0.005,0.069-0.005,0.135,0.028,0.2c0.032,0.056,0.102,0.084,0.148,0.121c-0.098,0.154-0.321-0.028-0.396-0.111
	c-0.079-0.089-0.131-0.229-0.279-0.205c-0.126,0.019-0.279,0.177-0.358,0.279c-0.112,0.135-0.103,0.289-0.07,0.447
	c0.057,0.266,0.205,0.494,0.429,0.67c0.111,0.084,0.335,0.033,0.419,0.14c0.042,0.051,0.019,0.13,0.028,0.2
	c0.009,0.07,0.032,0.154,0.046,0.229c0.028,0.14,0.079,0.27,0.103,0.41s-0.019,0.321,0.019,0.465
	c0.019,0.056,0.056,0.107,0.074,0.172c0.02,0.079,0.028,0.158,0.02,0.242c-0.01,0.13-0.089,0.284-0.131,0.41
	c-0.089,0.279-0.042,0.642-0.042,0.935c0,0.316-0.019,0.625-0.042,0.932c-0.023,0.237-0.023,0.68-0.237,0.819
	c-0.149,0.098-0.288,0.187-0.429,0.294c-0.051,0.041-0.102,0.061-0.153,0.088c-0.061,0.033-0.163,0.033-0.214,0.061
	c-0.107,0.07-0.149,0.261-0.172,0.367c-0.033,0.158-0.103,0.308-0.149,0.466c-0.084,0.284-0.07,0.605-0.242,0.856
	c-0.172,0.252-0.517,0.238-0.675,0.518c-0.079,0.135-0.098,0.32-0.294,0.303c-0.13-0.01-0.283-0.08-0.409-0.107
	c0,0.219-0.34,0.27-0.358,0.461c0-0.01,0-0.023,0-0.033l0.023,0.173c-0.028-0.019-0.14,0.089-0.173,0.153
	c-0.032,0.084,0.01,0.187,0.019,0.266c0.019,0.19,0.005,0.41-0.022,0.596c-0.028,0.182-0.187,0.266-0.229,0.419
	c-0.047,0.182,0.089,0.363,0.153,0.521c0.052,0.135,0.107,0.34,0.215,0.452c0.14,0.139,0.312,0.102,0.479,0.098
	c0.302-0.005,0.861-0.061,0.94,0.316c0.461-0.232,0.428-0.829,0.86-1.066c0.099,0.293,0.261-0.079,0.312-0.2
	c0.088-0.21,0.214-0.392,0.34-0.577c0.13-0.191,0.335-0.34,0.442-0.549c0.126-0.242-0.149-0.285-0.34-0.35
	c-0.047-0.242,0.372-0.126,0.47-0.14c0.177-0.042,0.219-0.237,0.279-0.368c0.103-0.232,0.303-0.111,0.494-0.102
	c0.2,0.009,0.391-0.201,0.572-0.252c0.074-0.019,0.187-0.01,0.256-0.047c0.107-0.051,0.126-0.172,0.187-0.256
	c0.111-0.158,0.308-0.148,0.503-0.177c0.391-0.056,0.712,0.083,1.001,0.368c0.237,0.232,0.358,0.591,0.517,0.879
	c0.209,0.383,0.349,0.703,0.345,1.146c-0.005,0.396,0.172,0.778,0.2,1.169c0.032,0.419,0.13,0.759,0.27,1.145
	c0.14,0.373,0.252,0.708,0.252,1.117c0,0.415,0.061,0.764,0.125,1.146c0.028,0.182,0.07,0.357,0.103,0.544
	c0.028,0.205,0.047,0.4,0.103,0.597c0.103,0.34,0.489,0.805,0.372,1.145c-0.046,0.135-0.153,0.256-0.181,0.396
	c-0.028,0.172,0,0.371,0,0.544c0,0.19,0.022,0.345,0.051,0.521c0.032,0.2-0.01,0.335-0.028,0.521
	c-0.027,0.358-0.027,0.708-0.172,1.043c-0.103,0.237-0.363,0.601-0.643,0.521c-0.009-0.046-0.042-0.088-0.074-0.125
	c0.032-0.074,0.088-0.182,0.088-0.261c-0.148,0.023-0.103-0.079-0.111-0.173c-0.005-0.041,0.019-0.074-0.005-0.125
	c-0.009-0.027-0.061-0.07-0.079-0.098c-0.098-0.182-0.088-0.363-0.367-0.35c-0.154,0.005-0.4,0.126-0.471,0.271
	c-0.079,0.163-0.009,0.386,0.028,0.544c0.069,0.289-0.219,0.238-0.4,0.322c-0.136,0.069-0.229,0.256-0.289,0.381
	c-0.032,0.061-0.126,0.173-0.107,0.242c0.01,0.07,0.121,0.111,0.149,0.178c0.061,0.162,0.01,0.446-0.074,0.582
	c-0.182,0.293-0.573,0.498-0.861,0.67c-0.154,0.084-0.345,0.182-0.466,0.312c-0.111,0.126-0.148,0.335-0.182,0.493
	c-0.032,0.187-0.088,0.373-0.074,0.573c0.019,0.182,0.047,0.386,0,0.573c-0.042,0.162-0.126,0.293-0.205,0.446
	c-0.088,0.173-0.107,0.382-0.19,0.55c-0.028,0.055-0.052,0.102-0.121,0.102c0,0.089,0.046,0.158-0.01,0.238
	c-0.069,0.102-0.205,0.055-0.288,0.111c-0.14,0.098-0.098,0.316-0.257,0.391c-0.079,0.042-0.172,0.01-0.251,0.08
	c-0.084,0.069-0.111,0.172-0.153,0.26c-0.07,0.154-0.131,0.35-0.242,0.471c0-0.01-0.149,0.521-0.149,0.502L109.459,50v-0.568
	L96.74,49.428c0.34-0.21,0.592-0.489,0.722-0.573c0.266-0.172,0.419-0.429,0.592-0.698c0.088-0.14,0.2-0.283,0.303-0.424
	c0.106-0.162,0.121-0.34,0.182-0.517c0.12-0.358,0.186-0.685,0.465-0.968c0.237-0.238,0.358-0.531,0.531-0.815
	c0.186-0.302,0.428-0.642,0.544-0.973c0.061-0.187,0.057-0.396,0.075-0.597c0.019-0.199,0.084-0.344,0.182-0.521
	c0.177-0.317,0.088-0.778,0.121-1.146c0.019-0.2,0.125-0.316,0.125-0.521c0-0.214-0.022-0.41-0.022-0.623
	c0-0.41-0.052-0.801-0.052-1.221c0-0.409,0.047-0.852-0.056-1.233c-0.103-0.4-0.233-0.806-0.41-1.196
	c-0.177-0.387-0.475-0.685-0.577-1.094c-0.088-0.368-0.219-0.731-0.293-1.117c-0.074-0.4-0.158-0.807-0.345-1.174
	c-0.172-0.34-0.279-0.698-0.061-1.043c0.177-0.289,0.498-0.488,0.572-0.838c0.047-0.2-0.019-0.41-0.046-0.596
	c-0.019-0.107-0.023-0.215-0.047-0.321c-0.009-0.047-0.032-0.089-0.047-0.13c-0.009-0.057-0.056-0.075-0.004-0.07l-0.07-0.312
	c-0.084-0.061-0.148-0.288-0.19-0.391c-0.047-0.098-0.205-0.283-0.163-0.391c0.027-0.08,0.219-0.187,0.284-0.256
	c0.098-0.104,0.209-0.205,0.279-0.317c0.148-0.251,0.27-0.517,0.419-0.772c0.069-0.126,0.163-0.219,0.228-0.35
	c0.07-0.148,0.103-0.312,0.154-0.465c0.088-0.279,0.27-0.503,0.321-0.801c0.051-0.303,0.042-0.592,0.125-0.871
	c0.089-0.293,0.028-0.61-0.088-0.88c-0.033-0.079-0.056-0.107-0.056-0.186c0-0.07,0.027-0.13,0.032-0.191
	c0.019-0.158-0.005-0.233,0.121-0.344c0.098-0.084,0.219-0.149,0.335-0.205c0.056-0.028,0.135-0.079,0.205-0.079
	c0.061,0,0.098,0.07,0.172,0.023c0.089-0.056,0.107-0.266,0.131-0.359c0.032-0.135,0.084-0.26,0.088-0.414
	c0-0.079,0.005-0.163,0-0.242c-0.004-0.074-0.051-0.149-0.042-0.228c0.019-0.098,0.159-0.331,0.219-0.391
	c0.126-0.13,0.178,0.07,0.321,0.056c0.178-0.009,0.173-0.153,0.205-0.284c0.042-0.14,0.135-0.266,0.284-0.228
	c0.051,0.009,0.14,0.07,0.182,0.098c0.047,0.042,0.061,0.121,0.111,0.149c0.107,0.056,0.331-0.061,0.392-0.149
	c0.084-0.107,0.13-0.266,0.14-0.391c0.019-0.177-0.019-0.303,0.135-0.424c0.089-0.074,0.21-0.112,0.289-0.209
	c0.153-0.191,0.251-0.475,0.382-0.689c0.032-0.056,0.074-0.14,0.125-0.191c0.074-0.07,0.079-0.028,0.149-0.004
	c0.051,0.019,0.032,0.061,0.098,0.033c0.023-0.01,0.047-0.089,0.061-0.112c0.032-0.07,0.042-0.13,0.126-0.13
	c0.032,0,0.14,0.074,0.153,0.107c0.027,0.075-0.023,0.098-0.07,0.149c-0.074,0.084-0.214,0.242-0.219,0.358
	c-0.074-0.051-0.042-0.256-0.158-0.107c-0.061,0.075-0.074,0.228-0.074,0.316c0,0.107,0.032,0.205,0.098,0.303
	c0.047,0.075,0.149,0.186,0.126,0.279c-0.042,0-0.084,0.005-0.126,0.005c0.01,0.14-0.056,0.251-0.149,0.316
	c-0.12,0.098-0.148,0.163-0.13,0.331c0.061,0.005,0.187-0.07,0.237-0.107c0.01,0.098,0.047,0.363,0.005,0.447
	c-0.023,0.046-0.098,0.07-0.135,0.107c-0.033,0.033-0.07,0.098-0.084,0.135c-0.056,0.107-0.056,0.307-0.042,0.423
	c0.009,0.075,0.056,0.112,0.079,0.187c0.023,0.074,0,0.121-0.01,0.186c-0.019,0.103-0.022,0.321,0.136,0.316
	c0.13-0.004,0.125-0.205,0.148-0.302c0.028-0.13,0.07-0.242,0.14-0.358c0.056-0.098,0.215-0.261,0.2-0.368
	c-0.074-0.004-0.148,0-0.214-0.004c-0.047-0.163,0.121-0.182,0.182-0.279c0.069-0.103,0.056-0.233,0.126-0.335
	c0.051-0.074,0.19-0.27,0.265-0.13c0.052,0.098-0.083,0.289-0.106,0.382c-0.07,0.261,0.084,0.531-0.136,0.74
	c-0.079,0.075-0.232,0.172-0.256,0.284c-0.019,0.061,0.01,0.112,0,0.182c-0.009,0.056-0.061,0.111-0.061,0.172
	c0,0.158,0.191,0.158,0.284,0.079c0.089-0.079,0.163-0.2,0.219-0.302c0.074-0.135,0.089-0.279,0.172-0.415
	c0.08-0.14,0.149-0.293,0.215-0.447c0.074-0.158,0.098-0.237,0.084-0.41c-0.01-0.158,0.004-0.312,0.032-0.466
	c0.051-0.312,0.172-0.601,0.149-0.912c-0.01-0.154-0.061-0.266-0.089-0.415c-0.023-0.149-0.01-0.316-0.023-0.465
	c-0.009-0.121-0.005-0.335,0.032-0.447c0.052-0.153,0.2-0.232,0.312-0.335c0.047-0.042,0.135-0.154,0.19-0.163
	c0.079-0.019,0.121,0.051,0.182,0.098c0.131,0.098,0.252,0.177,0.335,0.317c0.131,0.214,0.22,0.489,0.373,0.684
	c0-0.103,0.047-0.191,0.042-0.293c-0.005-0.103-0.089-0.182-0.089-0.279c0.308,0.13,0.475,0.46,0.834,0.423
	c-0.057-0.083-0.159-0.135-0.2-0.237c-0.047-0.107-0.028-0.233-0.14-0.312c-0.08-0.056-0.21-0.042-0.303-0.056
	c-0.098-0.019-0.173-0.051-0.257-0.089c-0.125-0.061-0.251-0.153-0.372-0.228c-0.163-0.102-0.084-0.172,0.061-0.256
	c0.266-0.163,0.526-0.163,0.833-0.121c0.238,0.042,0.671,0.121,0.871-0.061c0.126-0.112,0.111-0.321-0.028-0.415
	c-0.121-0.074-0.303-0.051-0.428-0.088c-0.289-0.079-0.442-0.321-0.526-0.61c-0.074-0.256-0.14-0.605,0.023-0.842
	c0.074-0.107,0.14-0.214,0.242-0.303c0.111-0.098,0.214-0.163,0.307-0.289c0.084-0.121,0.187-0.233,0.242-0.373
	c0.075-0.177-0.042-0.158-0.135-0.284L107.867,15.382z"/>
	</svg>
