<?xml version="1.0" encoding="UTF-8" standalone="no"?>
<svg width="1324px" height="466px" viewBox="0 0 1324 466" version="1.1" xmlns="http://www.w3.org/2000/svg" xmlns:xlink="http://www.w3.org/1999/xlink" xmlns:sketch="http://www.bohemiancoding.com/sketch/ns">
    <!-- Generator: Sketch 3.4.2 (15857) - http://www.bohemiancoding.com/sketch -->
    <title>GR skyline</title>
    <desc>Created with Sketch.</desc>
    <defs></defs>
    <g id="Desktop-Thoughts" stroke="none" stroke-width="1" fill="none" fill-rule="evenodd" sketch:type="MSPage">
        <g id="ThoughtsHome" sketch:type="MSArtboardGroup" transform="translate(0.000000, -234.000000)" fill="#9D969E" opacity="0.18073694">
            <path d="M0,700 L0,616.265625 L16.6269592,616.265625 L16.6269592,561.65625 L41.5673981,561.65625 L45.7241379,587.140625 L91.4482759,587.140625 L91.4482759,605.34375 L116.388715,605.34375 L116.388715,576.21875 L141.329154,572.578125 L141.329154,561.65625 L166.269592,554.375 L166.269592,543.453125 L220.30721,543.453125 L224.46395,561.65625 L236.934169,561.65625 L236.934169,536.171875 L257.717868,536.171875 L257.717868,554.375 L270.188088,554.375 L274.344828,517.96875 L303.442006,517.96875 L303.442006,234 L502.965517,339.578125 L502.965517,514.328125 L519.592476,514.328125 L519.592476,539.8125 L536.219436,539.8125 L536.219436,572.578125 L552.846395,572.578125 L552.846395,554.375 L586.100313,554.375 L581.943574,375.984375 L602.727273,375.984375 L602.727273,361.421875 L777.310345,361.421875 L777.310345,375.984375 L793.937304,375.984375 L793.937304,536.171875 L814.721003,536.171875 L814.721003,576.21875 L835.504702,576.21875 L839.661442,561.65625 L872.915361,561.65625 L872.915361,488.84375 L918.639498,488.84375 L918.639498,430.59375 L935.266458,430.59375 L935.266458,412.390625 L951.893417,412.390625 L951.893417,390.546875 L1051.65517,390.546875 L1051.65517,412.390625 L1068.28213,412.390625 L1068.28213,430.59375 L1084.90909,430.59375 L1084.90909,514.328125 L1101.53605,514.328125 L1101.53605,619.90625 L1114.00627,619.90625 L1114.00627,547.09375 L1134.78997,547.09375 L1134.78997,623.546875 L1147.26019,623.546875 L1147.26019,568.9375 L1226.23824,568.9375 L1226.23824,543.453125 L1263.6489,543.453125 L1263.6489,587.140625 L1326,587.140625 L1326,700 L0,700 Z" id="GR-skyline" sketch:type="MSShapeGroup"></path>
        </g>
    </g>
</svg>