<?xml version="1.0" encoding="UTF-8" standalone="no"?>
<svg width="436px" height="154px" viewBox="0 0 436 154" version="1.1" xmlns="http://www.w3.org/2000/svg" xmlns:xlink="http://www.w3.org/1999/xlink" xmlns:sketch="http://www.bohemiancoding.com/sketch/ns">
    <!-- Generator: Sketch 3.4.2 (15857) - http://www.bohemiancoding.com/sketch -->
    <title>GR skyline</title>
    <desc>Created with Sketch.</desc>
    <defs></defs>
    <g id="Desktop-Home" stroke="none" stroke-width="1" fill="none" fill-rule="evenodd" sketch:type="MSPage">
        <g id="Home2" sketch:type="MSArtboardGroup" transform="translate(0.000000, -673.000000)" fill="#200326">
            <path d="M0,827 L0,799.328125 L5.46708464,799.328125 L5.46708464,781.28125 L13.6677116,781.28125 L15.0344828,789.703125 L30.0689655,789.703125 L30.0689655,795.71875 L38.2695925,795.71875 L38.2695925,786.09375 L46.4702194,784.890625 L46.4702194,781.28125 L54.6708464,778.875 L54.6708464,775.265625 L72.4388715,775.265625 L73.8056426,781.28125 L77.9059561,781.28125 L77.9059561,772.859375 L84.7398119,772.859375 L84.7398119,778.875 L88.8401254,778.875 L90.2068966,766.84375 L99.7742947,766.84375 L99.7742947,673 L165.37931,707.890625 L165.37931,765.640625 L170.846395,765.640625 L170.846395,774.0625 L176.31348,774.0625 L176.31348,784.890625 L181.780564,784.890625 L181.780564,778.875 L192.714734,778.875 L191.347962,719.921875 L198.181818,719.921875 L198.181818,715.109375 L255.586207,715.109375 L255.586207,719.921875 L261.053292,719.921875 L261.053292,772.859375 L267.887147,772.859375 L267.887147,786.09375 L274.721003,786.09375 L276.087774,781.28125 L287.021944,781.28125 L287.021944,757.21875 L302.056426,757.21875 L302.056426,737.96875 L307.523511,737.96875 L307.523511,731.953125 L312.990596,731.953125 L312.990596,724.734375 L345.793103,724.734375 L345.793103,731.953125 L351.260188,731.953125 L351.260188,737.96875 L356.727273,737.96875 L356.727273,765.640625 L362.194357,765.640625 L362.194357,800.53125 L366.294671,800.53125 L366.294671,776.46875 L373.128527,776.46875 L373.128527,801.734375 L377.22884,801.734375 L377.22884,783.6875 L403.197492,783.6875 L403.197492,775.265625 L415.498433,775.265625 L415.498433,789.703125 L436,789.703125 L436,827 L0,827 Z" id="GR-skyline" sketch:type="MSShapeGroup"></path>
        </g>
    </g>
</svg>